<svg width="91" height="40" viewBox="0 0 91 40" fill="none" xmlns="http://www.w3.org/2000/svg">
<path d="M2.7 39.8878C2.11333 39.9145 1.66 39.8078 1.34 39.5678C0.993333 39.3278 0.873333 38.8745 0.98 38.2078C0.98 38.1278 1.00667 38.0078 1.06 37.8478C1.11333 37.6878 1.18 37.5811 1.26 37.5278C1.23333 38.1945 1.31333 38.6611 1.5 38.9278C1.68667 39.1945 1.99333 39.3278 2.42 39.3278C3.46 39.3278 4.52667 38.9945 5.62 38.3278C6.74 37.6611 7.84667 36.7678 8.94 35.6478C8.67333 35.5678 8.32667 35.4078 7.9 35.1678C7.5 34.9545 7.19333 34.7811 6.98 34.6478C5.91333 33.8745 5.38 32.9811 5.38 31.9678C5.38 31.1944 5.72667 30.3544 6.42 29.4478C7.11333 28.5411 8.24667 27.6211 9.82 26.6878C10.8333 26.0744 12.0067 25.5278 13.34 25.0478C14.6733 24.5678 15.9133 24.1811 17.06 23.8878C17.46 23.1144 17.8467 22.3544 18.22 21.6078C18.5933 20.8611 18.9533 20.1144 19.3 19.3678C19.4333 19.0744 19.6733 18.5144 20.02 17.6878C20.3667 16.8611 20.7533 15.8878 21.18 14.7678C21.6067 13.6478 22.0067 12.4611 22.38 11.2078C22.78 9.92778 23.1133 8.68778 23.38 7.48778C23.6467 6.28778 23.78 5.22112 23.78 4.28778C23.78 3.38111 23.62 2.67445 23.3 2.16778C23.0067 1.66111 22.4733 1.40778 21.7 1.40778H21.66C21.4467 1.40778 21.34 1.34111 21.34 1.20778C21.34 1.07445 21.4733 0.981115 21.74 0.927781C23.02 0.794447 23.9133 1.10111 24.42 1.84778C24.9267 2.59445 25.18 3.58112 25.18 4.80778C25.18 5.02112 25.1667 5.24778 25.14 5.48778C25.14 5.72778 25.1267 5.98111 25.1 6.24778C25.26 6.38111 25.3667 6.60778 25.42 6.92778C25.58 7.78112 25.74 8.90112 25.9 10.2878C26.0867 11.6744 26.3 13.1944 26.54 14.8478C26.78 16.5011 27.06 18.1811 27.38 19.8878C27.7267 21.5678 28.1267 23.1544 28.58 24.6478C29.06 26.1144 29.62 27.3544 30.26 28.3678C30.3933 28.5811 30.58 28.8611 30.82 29.2078C31.06 29.5278 31.3533 29.8211 31.7 30.0878C32.0467 30.3544 32.4333 30.4878 32.86 30.4878C33.3133 30.4878 33.78 30.3011 34.26 29.9278C34.6867 29.5811 35.0867 29.1011 35.46 28.4878C35.8333 27.8744 36.18 27.2211 36.5 26.5278C36.66 26.2344 36.8067 26.0878 36.94 26.0878C37.0733 26.0878 37.1667 26.1678 37.22 26.3278C37.3 26.4611 37.3267 26.5944 37.3 26.7278C37.1933 27.0744 36.9667 27.4878 36.62 27.9678C36.3 28.4211 35.9667 28.8478 35.62 29.2478C35.2733 29.6211 34.9933 29.8878 34.78 30.0478C34.3 30.4211 33.8333 30.6878 33.38 30.8478C32.9533 31.0344 32.5533 31.1278 32.18 31.1278C31.3 31.1278 30.5267 30.7944 29.86 30.1278C29.22 29.4344 28.66 28.7144 28.18 27.9678C27.5133 26.9011 26.98 25.5544 26.58 23.9278C26.2067 22.3011 25.9133 20.5411 25.7 18.6478C25.4867 16.7544 25.3133 14.8878 25.18 13.0478C25.0733 11.2078 24.9533 9.52778 24.82 8.00778C24.5 9.50112 24.06 11.0344 23.5 12.6078C22.94 14.1811 22.3667 15.6344 21.78 16.9678C21.22 18.2744 20.7533 19.2878 20.38 20.0078C19.7933 21.2078 19.1533 22.4078 18.46 23.6078C19.6867 23.3144 20.9667 23.0478 22.3 22.8078C23.6333 22.5678 24.8067 22.3411 25.82 22.1278H25.94C26.0467 22.1278 26.1 22.1678 26.1 22.2478C26.1 22.3278 26.0333 22.4344 25.9 22.5678C25.7667 22.7011 25.5933 22.7944 25.38 22.8478C24.2333 23.0611 22.9933 23.3144 21.66 23.6078C20.3267 23.8744 19.0733 24.1678 17.9 24.4878C16.6733 26.5944 15.4333 28.5944 14.18 30.4878C12.9267 32.3811 11.5533 34.0611 10.06 35.5278C11.0733 35.8478 12.3667 36.0078 13.94 36.0078H14.02C14.2333 36.0078 14.34 36.0611 14.34 36.1678C14.34 36.3278 14.18 36.4078 13.86 36.4078C13.1133 36.4345 12.38 36.3945 11.66 36.2878C10.94 36.2078 10.2733 36.0745 9.66 35.8878C8.48667 37.0345 7.3 37.9545 6.1 38.6478C4.92667 39.3678 3.79333 39.7811 2.7 39.8878ZM9.34 35.2478C10.62 33.9144 11.86 32.3544 13.06 30.5678C14.2867 28.7811 15.4333 26.9144 16.5 24.9678C16.1533 25.0744 15.7933 25.1944 15.42 25.3278C15.0467 25.4611 14.6867 25.6211 14.34 25.8078C13.8867 26.0211 13.2733 26.3278 12.5 26.7278C11.7267 27.1278 10.9533 27.5544 10.18 28.0078C9.43333 28.4344 8.86 28.8211 8.46 29.1678C7.92667 29.6478 7.54 30.1144 7.3 30.5678C7.06 31.0211 6.94 31.4611 6.94 31.8878C6.94 32.2611 7.00667 32.6211 7.14 32.9678C7.3 33.3145 7.48667 33.6478 7.7 33.9678C7.83333 34.1278 8.07333 34.3411 8.42 34.6078C8.79333 34.9011 9.1 35.1145 9.34 35.2478ZM38.6563 31.5278C37.9896 31.5278 37.4029 31.2878 36.8963 30.8078C36.4163 30.3544 36.1763 29.5678 36.1763 28.4478C36.1763 27.8611 36.2963 27.1411 36.5363 26.2878C36.7763 25.4078 37.0963 24.4878 37.4963 23.5278C37.9229 22.5678 38.4029 21.6744 38.9363 20.8478C39.4696 20.0211 40.0296 19.3411 40.6163 18.8078C41.2029 18.2744 41.7763 18.0078 42.3363 18.0078C42.7896 18.0078 43.1096 18.1678 43.2963 18.4878C43.5096 18.8078 43.6163 19.1544 43.6163 19.5278C43.6163 19.8478 43.5496 20.1411 43.4163 20.4078C43.3096 20.6478 43.1496 20.7678 42.9363 20.7678C42.7229 20.7678 42.5629 20.6744 42.4563 20.4878C42.3763 20.2744 42.2963 20.0744 42.2163 19.8878C42.1629 19.6744 42.0163 19.5678 41.7763 19.5678C41.2963 19.5678 40.8163 19.8878 40.3363 20.5278C39.8563 21.1411 39.4163 21.9278 39.0163 22.8878C38.6163 23.8478 38.2963 24.8344 38.0563 25.8478C37.8163 26.8611 37.6963 27.7544 37.6963 28.5278C37.6963 29.1944 37.7763 29.6878 37.9363 30.0078C38.1229 30.3011 38.4563 30.4478 38.9363 30.4478C39.5496 30.4478 40.1363 30.2744 40.6963 29.9278C41.2829 29.5544 41.8163 29.1011 42.2963 28.5678C42.7763 28.0344 43.1763 27.5278 43.4963 27.0478C43.8429 26.5678 44.0829 26.2078 44.2163 25.9678C44.5363 25.3544 44.7896 25.0478 44.9763 25.0478C45.0563 25.0478 45.0963 25.1544 45.0963 25.3678C45.0963 25.6344 45.0429 25.9011 44.9363 26.1678C44.8296 26.4078 44.7229 26.6344 44.6163 26.8478C44.2429 27.6478 43.7363 28.4078 43.0963 29.1278C42.4563 29.8211 41.7496 30.3944 40.9763 30.8478C40.2296 31.3011 39.4563 31.5278 38.6563 31.5278ZM48.5209 37.7278C47.9076 37.7278 47.4409 37.4745 47.1209 36.9678C46.8276 36.4611 46.6809 35.8745 46.6809 35.2078C46.6809 34.4078 46.8276 33.4878 47.1209 32.4478C47.4409 31.4344 47.8276 30.3944 48.2809 29.3278C48.7343 28.2344 49.2009 27.1811 49.6809 26.1678C50.1876 25.1544 50.6276 24.2478 51.0009 23.4478C51.4009 22.6478 51.6676 22.0344 51.8009 21.6078C51.9609 21.1278 52.0409 20.7678 52.0409 20.5278C52.0409 20.2611 51.9476 20.1278 51.7609 20.1278C51.5476 20.1278 51.2276 20.3011 50.8009 20.6478C50.4009 20.9678 50.0009 21.3278 49.6009 21.7278C49.2276 22.1278 48.9609 22.4211 48.8009 22.6078C47.9476 23.5678 47.1743 24.6344 46.4809 25.8078C45.8143 26.9811 45.4009 27.9811 45.2409 28.8078C45.2143 28.9411 45.1609 29.1811 45.0809 29.5278C45.0276 29.8744 44.9076 30.0344 44.7209 30.0078C44.4543 29.9544 44.2676 29.7944 44.1609 29.5278C44.0809 29.2344 44.0276 28.9678 44.0009 28.7278C44.0009 28.5944 43.9876 28.4611 43.9609 28.3278C43.9609 28.1678 43.9609 28.0078 43.9609 27.8478C43.9609 26.5411 44.1076 25.0611 44.4009 23.4078C44.6943 21.7544 45.0676 20.0611 45.5209 18.3278C46.0009 16.5944 46.5076 14.9811 47.0409 13.4878C47.5743 11.9944 48.0809 10.7544 48.5609 9.76778C48.8009 9.28778 49.0676 8.83445 49.3609 8.40778C49.6543 7.95445 49.9476 7.72778 50.2409 7.72778C50.4276 7.72778 50.5876 7.82112 50.7209 8.00778C50.8809 8.19445 50.9609 8.35445 50.9609 8.48778C50.9609 8.59445 50.7743 9.02111 50.4009 9.76778C50.0543 10.4878 49.6009 11.4478 49.0409 12.6478C48.4809 13.8211 47.9076 15.1678 47.3209 16.6878C46.7609 18.2078 46.2543 19.8344 45.8009 21.5678C45.3476 23.3011 45.0409 25.0611 44.8809 26.8478C44.8809 26.8744 44.8676 27.0078 44.8409 27.2478C44.8143 27.4878 44.7876 27.7278 44.7609 27.9678C44.7609 28.2078 44.7609 28.3278 44.7609 28.3278V28.2878H44.8009C44.8543 27.9678 44.9476 27.6611 45.0809 27.3678C45.2409 27.0744 45.4009 26.7944 45.5609 26.5278C46.3609 24.9278 47.3876 23.3944 48.6409 21.9278C49.2543 21.2344 49.8943 20.6344 50.5609 20.1278C51.2276 19.5944 51.9209 19.3278 52.6409 19.3278C52.9343 19.3278 53.1876 19.4078 53.4009 19.5678C53.6143 19.7278 53.7209 20.0344 53.7209 20.4878C53.7209 21.0744 53.5209 21.7678 53.1209 22.5678C52.7476 23.3411 52.2809 24.1544 51.7209 25.0078C51.1876 25.8344 50.6943 26.6211 50.2409 27.3678C49.6276 28.4078 49.0676 29.5144 48.5609 30.6878C48.0809 31.8344 47.8409 33.0344 47.8409 34.2878C47.8409 34.6611 47.8676 35.0611 47.9209 35.4878C48.0009 35.9145 48.1209 36.2745 48.2809 36.5678C48.4676 36.8878 48.7209 37.0478 49.0409 37.0478C49.2543 37.0478 49.4543 36.9811 49.6409 36.8478C49.8543 36.7411 50.0276 36.6345 50.1609 36.5278C50.4009 36.2878 50.5609 36.1678 50.6409 36.1678C50.7209 36.1678 50.7609 36.2078 50.7609 36.2878C50.7609 36.4478 50.6943 36.5945 50.5609 36.7278C50.4276 36.8878 50.2943 37.0078 50.1609 37.0878C49.9743 37.2478 49.7209 37.3945 49.4009 37.5278C49.1076 37.6611 48.8143 37.7278 48.5209 37.7278ZM57.5759 17.3678C57.3359 17.3678 57.1626 17.2478 57.0559 17.0078C56.9759 16.7411 56.9359 16.5544 56.9359 16.4478C56.9359 16.0211 57.0559 15.6211 57.2959 15.2478C57.5626 14.8478 57.8559 14.6344 58.1759 14.6078H58.2959C58.6159 14.6078 58.8293 14.6878 58.9359 14.8478C59.0693 14.9811 59.1359 15.1544 59.1359 15.3678C59.1359 15.7678 58.9626 16.2078 58.6159 16.6878C58.2693 17.1411 57.9226 17.3678 57.5759 17.3678ZM55.5359 31.6878C54.6293 31.6878 54.0159 31.3411 53.6959 30.6478C53.3759 29.9544 53.2159 29.1544 53.2159 28.2478C53.2159 27.3411 53.3093 26.3944 53.4959 25.4078C53.7093 24.3944 53.9359 23.4744 54.1759 22.6478C54.4426 21.8211 54.6426 21.2344 54.7759 20.8878C55.0693 20.2744 55.3626 19.7544 55.6559 19.3278C55.9493 18.8744 56.2693 18.6478 56.6159 18.6478C56.8559 18.6478 57.0293 18.7411 57.1359 18.9278C57.2693 19.0878 57.3359 19.3011 57.3359 19.5678C57.3359 20.1011 57.1893 20.6478 56.8959 21.2078C56.6026 21.7411 56.3359 22.2478 56.0959 22.7278C55.5626 23.8211 55.1359 24.7944 54.8159 25.6478C54.5226 26.5011 54.3759 27.5678 54.3759 28.8478C54.3759 29.6744 54.4559 30.2744 54.6159 30.6478C54.8026 31.0211 55.0559 31.2078 55.3759 31.2078C55.8026 31.2078 56.2959 30.9678 56.8559 30.4878C57.4159 29.9811 57.9893 29.3144 58.5759 28.4878C59.1626 27.6611 59.6826 26.7678 60.1359 25.8078C60.4293 25.1944 60.6559 24.8878 60.8159 24.8878C60.9226 24.8878 60.9759 24.9944 60.9759 25.2078C60.9759 25.5011 60.8559 25.9278 60.6159 26.4878C60.4026 27.0211 60.1359 27.5678 59.8159 28.1278C59.5226 28.6878 59.2426 29.1278 58.9759 29.4478C58.5226 30.0344 58.0026 30.5544 57.4159 31.0078C56.8293 31.4611 56.2026 31.6878 55.5359 31.6878ZM66.0584 37.0878C65.7118 37.0878 65.3784 36.9545 65.0584 36.6878C64.7651 36.4211 64.5118 36.1545 64.2984 35.8878C63.4451 34.9011 62.7251 33.5945 62.1384 31.9678C61.5784 30.3411 61.1518 28.5544 60.8584 26.6078C60.5651 24.6344 60.4184 22.6344 60.4184 20.6078C60.4184 18.7144 60.5384 16.8744 60.7784 15.0878C61.0451 13.3011 61.4451 11.6744 61.9784 10.2078C62.5118 8.74112 63.1784 7.56778 63.9784 6.68778C65.0184 5.51445 66.0184 4.92778 66.9784 4.92778C67.5651 4.92778 68.0318 5.19445 68.3784 5.72778C68.7518 6.23445 68.9384 7.04778 68.9384 8.16778C68.9384 9.23445 68.7251 10.5944 68.2984 12.2478C67.8984 13.8744 67.2051 15.8211 66.2184 18.0878C65.8718 18.8344 65.4984 19.5811 65.0984 20.3278C64.7251 21.0744 64.3251 21.8611 63.8984 22.6878C63.7384 23.0078 63.6051 23.1678 63.4984 23.1678C63.4451 23.1678 63.4184 23.1144 63.4184 23.0078C63.4184 22.7944 63.5118 22.5144 63.6984 22.1678C66.1251 17.6078 67.3384 13.0744 67.3384 8.56778C67.3384 6.78111 66.9651 5.88778 66.2184 5.88778C65.6851 5.88778 65.0584 6.40778 64.3384 7.44778C63.3518 8.91445 62.6718 10.6611 62.2984 12.6878C61.9251 14.6878 61.7384 16.7144 61.7384 18.7678C61.7384 20.3144 61.8051 21.8211 61.9384 23.2878C62.0718 24.7278 62.2318 26.0344 62.4184 27.2078C62.4984 27.7144 62.6184 28.3944 62.7784 29.2478C62.9384 30.1011 63.1518 30.9944 63.4184 31.9278C63.6851 32.8878 63.9784 33.7544 64.2984 34.5278C64.6451 35.3278 65.0184 35.9011 65.4184 36.2478C65.5251 36.3278 65.6318 36.4078 65.7384 36.4878C65.8718 36.5945 66.0184 36.6611 66.1784 36.6878C66.4184 36.6878 66.5384 36.7545 66.5384 36.8878C66.5384 37.0211 66.3784 37.0878 66.0584 37.0878ZM72.7772 37.0878C72.4305 37.0878 72.0972 36.9545 71.7772 36.6878C71.4839 36.4211 71.2305 36.1545 71.0172 35.8878C70.1639 34.9011 69.4439 33.5945 68.8572 31.9678C68.2972 30.3411 67.8705 28.5544 67.5772 26.6078C67.2839 24.6344 67.1372 22.6344 67.1372 20.6078C67.1372 18.7144 67.2572 16.8744 67.4972 15.0878C67.7639 13.3011 68.1639 11.6744 68.6972 10.2078C69.2305 8.74112 69.8972 7.56778 70.6972 6.68778C71.7372 5.51445 72.7372 4.92778 73.6972 4.92778C74.2839 4.92778 74.7505 5.19445 75.0972 5.72778C75.4705 6.23445 75.6572 7.04778 75.6572 8.16778C75.6572 9.23445 75.4439 10.5944 75.0172 12.2478C74.6172 13.8744 73.9239 15.8211 72.9372 18.0878C72.5905 18.8344 72.2172 19.5811 71.8172 20.3278C71.4439 21.0744 71.0439 21.8611 70.6172 22.6878C70.4572 23.0078 70.3239 23.1678 70.2172 23.1678C70.1639 23.1678 70.1372 23.1144 70.1372 23.0078C70.1372 22.7944 70.2305 22.5144 70.4172 22.1678C72.8439 17.6078 74.0572 13.0744 74.0572 8.56778C74.0572 6.78111 73.6839 5.88778 72.9372 5.88778C72.4039 5.88778 71.7772 6.40778 71.0572 7.44778C70.0705 8.91445 69.3905 10.6611 69.0172 12.6878C68.6439 14.6878 68.4572 16.7144 68.4572 18.7678C68.4572 20.3144 68.5239 21.8211 68.6572 23.2878C68.7905 24.7278 68.9505 26.0344 69.1372 27.2078C69.2172 27.7144 69.3372 28.3944 69.4972 29.2478C69.6572 30.1011 69.8705 30.9944 70.1372 31.9278C70.4039 32.8878 70.6972 33.7544 71.0172 34.5278C71.3639 35.3278 71.7372 35.9011 72.1372 36.2478C72.2439 36.3278 72.3505 36.4078 72.4572 36.4878C72.5905 36.5945 72.7372 36.6611 72.8972 36.6878C73.1372 36.6878 73.2572 36.7545 73.2572 36.8878C73.2572 37.0211 73.0972 37.0878 72.7772 37.0878ZM76.9359 31.2478C75.9759 31.2478 75.1359 30.6878 74.4159 29.5678C73.7226 28.4211 73.3759 26.6211 73.3759 24.1678C73.3759 22.5678 73.5759 21.2878 73.9759 20.3278C74.3759 19.3411 74.8693 18.6211 75.4559 18.1678C76.0426 17.7144 76.6026 17.4878 77.1359 17.4878C77.6693 17.4878 78.1226 17.6744 78.4959 18.0478C78.8693 18.3944 79.0559 18.9011 79.0559 19.5678C79.0559 20.2078 78.8693 20.8878 78.4959 21.6078C78.1226 22.3011 77.6693 22.9411 77.1359 23.5278C76.6293 24.0878 76.1226 24.4611 75.6159 24.6478C75.5093 24.7011 75.3759 24.7278 75.2159 24.7278C75.1093 24.7278 75.0559 24.6878 75.0559 24.6078C75.0559 24.3944 75.2693 24.1544 75.6959 23.8878C76.2293 23.5144 76.7359 22.9544 77.2159 22.2078C77.6959 21.4344 77.9359 20.7544 77.9359 20.1678C77.9359 19.8211 77.8559 19.5544 77.6959 19.3678C77.5359 19.1544 77.3493 19.0478 77.1359 19.0478C76.7359 19.0478 76.2959 19.3678 75.8159 20.0078C75.3626 20.6211 75.0293 21.6878 74.8159 23.2078C74.7626 23.6344 74.7093 24.0478 74.6559 24.4478C74.6293 24.8211 74.6159 25.1944 74.6159 25.5678C74.6159 27.0611 74.8426 28.2344 75.2959 29.0878C75.7493 29.9144 76.3493 30.3278 77.0959 30.3278C77.7359 30.3278 78.4559 29.9544 79.2559 29.2078C80.0559 28.4344 80.8426 27.2344 81.6159 25.6078C81.8026 25.1811 82.0159 24.9678 82.2559 24.9678C82.4159 24.9678 82.4959 25.0744 82.4959 25.2878C82.4959 25.4744 82.4426 25.6744 82.3359 25.8878C81.6426 27.5944 80.8026 28.9144 79.8159 29.8478C78.8293 30.7811 77.8693 31.2478 76.9359 31.2478ZM85.6069 32.4478C85.2602 32.4478 85.0069 32.3278 84.8469 32.0878C84.7135 31.8744 84.6469 31.6611 84.6469 31.4478C84.6469 31.0211 84.8335 30.5811 85.2069 30.1278C85.3402 29.9678 85.5269 29.7544 85.7669 29.4878C86.0069 29.1944 86.1802 28.9678 86.2869 28.8078C85.9402 28.3278 85.4735 27.8878 84.8869 27.4878C84.3002 27.0878 83.7269 26.5811 83.1669 25.9678C82.6602 25.4078 82.2335 24.7278 81.8869 23.9278C81.5402 23.1011 81.3669 22.3144 81.3669 21.5678C81.3669 20.6878 81.5669 19.8478 81.9669 19.0478C82.3669 18.2478 82.8602 17.5544 83.4469 16.9678C84.0869 16.3278 84.7935 15.8211 85.5669 15.4478C86.3402 15.0478 87.1402 14.8478 87.9669 14.8478C88.5269 14.8478 89.0735 14.9811 89.6069 15.2478C90.1402 15.5144 90.4069 15.9544 90.4069 16.5678C90.4069 17.2878 90.2469 17.6478 89.9269 17.6478C89.7935 17.6478 89.7002 17.5144 89.6469 17.2478C89.6202 17.1144 89.6069 16.9811 89.6069 16.8478C89.6069 16.6878 89.6069 16.5811 89.6069 16.5278C89.6069 16.2611 89.4869 16.0344 89.2469 15.8478C89.0069 15.6344 88.7402 15.5278 88.4469 15.5278C87.8335 15.5278 87.1535 15.7678 86.4069 16.2478C85.6602 16.7278 85.0335 17.2878 84.5269 17.9278C84.0202 18.5944 83.6069 19.3544 83.2869 20.2078C82.9669 21.0344 82.8069 21.8344 82.8069 22.6078C82.8069 23.5678 83.0202 24.3944 83.4469 25.0878C83.8735 25.7811 84.3802 26.3944 84.9669 26.9278C85.5802 27.4611 86.1269 27.9811 86.6069 28.4878C86.8469 28.1944 87.1002 27.9144 87.3669 27.6478C87.6602 27.3811 87.9269 27.1678 88.1669 27.0078C88.3802 26.8744 88.5269 26.8078 88.6069 26.8078C88.6869 26.8078 88.7269 26.8478 88.7269 26.9278C88.7269 27.0611 88.6069 27.2211 88.3669 27.4078C88.3135 27.4611 88.1535 27.6211 87.8869 27.8878C87.6469 28.1278 87.3535 28.4344 87.0069 28.8078C87.2202 29.0478 87.3935 29.3011 87.5269 29.5678C87.6602 29.8344 87.7269 30.1278 87.7269 30.4478C87.7269 30.8744 87.4869 31.3144 87.0069 31.7678C86.5269 32.2211 86.0602 32.4478 85.6069 32.4478ZM86.0469 31.3678C86.2335 31.3678 86.4069 31.1944 86.5669 30.8478C86.7535 30.5278 86.8469 30.2078 86.8469 29.8878C86.8469 29.7278 86.8202 29.5811 86.7669 29.4478C86.7135 29.3144 86.6735 29.2344 86.6469 29.2078C86.4335 29.4744 86.2335 29.7678 86.0469 30.0878C85.8869 30.3811 85.8069 30.6478 85.8069 30.8878C85.8069 31.2078 85.8869 31.3678 86.0469 31.3678Z" fill="black"/>
</svg>
