<svg width="20" height="23" viewBox="0 0 20 23" fill="none" xmlns="http://www.w3.org/2000/svg">
<path d="M6.15381 7.15448H7.69227V18.6785H6.15381V7.15448Z" fill="#134563"/>
<path d="M9.23096 7.15448H10.7694V18.6785H9.23096V7.15448Z" fill="#134563"/>
<path d="M12.3076 7.15448H13.8461V18.6785H12.3076V7.15448Z" fill="#134563"/>
<path d="M0 2.83298H20V4.27348H0V2.83298Z" fill="#134563"/>
<path d="M13.7948 3.55323H12.3589V2.11273C12.3589 1.68058 11.9999 1.34447 11.5384 1.34447H8.46149C7.99995 1.34447 7.64097 1.68058 7.64097 2.11273V3.55323H6.20508V2.11273C6.20508 0.960331 7.23072 0 8.46149 0H11.5384C12.7692 0 13.7948 0.960331 13.7948 2.11273V3.55323Z" fill="#134563"/>
<path d="M14.6155 23H5.38473C4.15396 23 3.07704 22.0397 2.97447 20.8873L1.53857 3.60125L3.07704 3.50522L4.51293 20.7912C4.56422 21.2234 4.97447 21.5595 5.38473 21.5595H14.6155C15.077 21.5595 15.4873 21.1754 15.4873 20.7912L16.9232 3.50522L18.4617 3.60125L17.0258 20.8873C16.9232 22.0877 15.8463 23 14.6155 23Z" fill="#134563"/>
</svg>
