<svg width="106" height="106" viewBox="0 0 106 106" fill="none" xmlns="http://www.w3.org/2000/svg">
<g filter="url(#filter0_d_23_315)">
<rect x="3" y="2" width="100" height="100" rx="50" fill="white" shape-rendering="crispEdges"/>
<rect x="3.5" y="2.5" width="99" height="99" rx="49.5" stroke="#EDF4EA" shape-rendering="crispEdges"/>
<path d="M41.5868 61.1599V42.8401C41.5783 42.4051 41.6432 41.9724 41.7777 41.5676C41.9121 41.1628 42.1135 40.7939 42.3699 40.4827C42.6263 40.1715 42.9326 39.9243 43.2707 39.7555C43.6088 39.5868 43.972 39.4999 44.3388 39.5H44.6375C45.3843 39.5 46.1006 39.8519 46.6287 40.4783C47.1568 41.1047 47.4535 41.9542 47.4535 42.8401V61.1599C47.4535 62.0458 47.1568 62.8953 46.6287 63.5217C46.1006 64.1481 45.3843 64.5 44.6375 64.5H44.3175C43.9506 64.5001 43.5875 64.4132 43.2494 64.2445C42.9112 64.0757 42.605 63.8285 42.3486 63.5173C42.0922 63.2061 41.8908 62.8372 41.7563 62.4324C41.6219 62.0276 41.557 61.5949 41.5655 61.1599" fill="black"/>
<path d="M77.0854 41.6761L83.336 53.7207C84.68 56.251 85 57.0101 85 58.9332C84.9718 60.2916 84.52 61.5894 83.7319 62.5755C82.9438 63.5617 81.8755 64.1663 80.7334 64.2723H72.2001C71.8439 64.2962 71.4873 64.2345 71.1518 64.0907C70.8162 63.9469 70.5087 63.7242 70.2476 63.4358C69.9866 63.1474 69.7774 62.7994 69.6326 62.4126C69.4879 62.0258 69.4106 61.6084 69.4054 61.1852V60.9828C69.4111 60.1081 69.708 59.2714 70.2315 58.6553C70.755 58.0391 71.4626 57.6933 72.2001 57.6933H77.3627C77.6827 57.6933 77.8961 57.6933 77.9814 57.3897C78.036 57.2829 78.0649 57.1604 78.0649 57.0354C78.0649 56.9105 78.036 56.788 77.9814 56.6812L74.2907 49.6721C74.2907 49.6721 74.1627 49.3937 74.0561 49.3937C73.9494 49.3937 73.8641 49.5456 73.8001 49.6721L68.1681 61.1346C67.2934 62.9565 66.2694 64.2723 64.7334 64.2723H53.8322C52.7632 64.1891 51.7562 63.6479 50.9988 62.7494C50.2413 61.851 49.785 60.6566 49.7148 59.3887V42.8148C49.7148 41.9424 50.007 41.1057 50.5271 40.4888C51.0472 39.8719 51.7526 39.5253 52.4882 39.5253H52.8508C53.5864 39.5253 54.2918 39.8719 54.8119 40.4888C55.332 41.1057 55.6242 41.9424 55.6242 42.8148V56.3523C55.6182 56.4716 55.6332 56.5911 55.6684 56.7031C55.7035 56.8152 55.7579 56.9173 55.8281 57.003C55.8984 57.0887 55.9829 57.1561 56.0764 57.2009C56.1698 57.2457 56.2701 57.2669 56.3708 57.2632H61.7681C62.18 57.2859 62.5886 57.1665 62.9445 56.9195C63.3004 56.6725 63.5883 56.3085 63.7734 55.8715L71.0054 41.6761C71.3143 41.0305 71.7652 40.4964 72.31 40.131C72.8548 39.7655 73.4731 39.5824 74.0987 39.6012C74.7096 39.5861 75.312 39.7719 75.8392 40.1382C76.3664 40.5044 76.7978 41.0368 77.0854 41.6761Z" fill="black"/>
<path d="M27.6776 55.6942C27.4739 55.6942 27.2786 55.7902 27.1345 55.9611C26.9905 56.1319 26.9096 56.3636 26.9096 56.6052V61.2104C26.9096 62.0829 26.6174 62.9196 26.0973 63.5365C25.5772 64.1533 24.8718 64.4999 24.1363 64.4999H23.7736C23.0381 64.4999 22.3327 64.1533 21.8126 63.5365C21.2925 62.9196 21.0003 62.0829 21.0003 61.2104V52.8096C20.9945 52.2927 21.0762 51.7796 21.2403 51.3007C21.4044 50.8218 21.6478 50.3867 21.956 50.0212C22.2642 49.6556 22.631 49.367 23.0348 49.1723C23.4386 48.9776 23.8711 48.8808 24.3069 48.8876H35.6136C36.3491 48.8876 37.0545 49.2341 37.5746 49.851C38.0947 50.4679 38.3869 51.3046 38.3869 52.177V52.4048C38.3869 53.2772 38.0947 54.1139 37.5746 54.7308C37.0545 55.3477 36.3491 55.6942 35.6136 55.6942H27.6776Z" fill="black"/>
<path d="M23.8161 39.9807H36.9787C37.3455 39.9706 37.7102 40.0476 38.0515 40.2071C38.3928 40.3666 38.7038 40.6054 38.9662 40.9095C39.2285 41.2137 39.437 41.5769 39.5793 41.978C39.7216 42.379 39.7948 42.8098 39.7947 43.2449V43.4473C39.7947 43.886 39.7219 44.3203 39.5804 44.7255C39.4388 45.1308 39.2314 45.499 38.9699 45.8091C38.7084 46.1193 38.398 46.3653 38.0563 46.5332C37.7147 46.701 37.3485 46.7874 36.9787 46.7874H23.8161C23.0693 46.7874 22.353 46.4355 21.8249 45.8091C21.2968 45.1827 21.0001 44.3332 21.0001 43.4473V43.2196C21.0029 42.7866 21.0782 42.3586 21.2217 41.9605C21.3653 41.5624 21.5742 41.2021 21.8362 40.9007C22.0983 40.5992 22.4083 40.3627 22.7482 40.2047C23.0882 40.0468 23.4512 39.9707 23.8161 39.9807Z" fill="#4D4D4D"/>
</g>
<defs>
<filter id="filter0_d_23_315" x="0" y="0" width="106" height="106" filterUnits="userSpaceOnUse" color-interpolation-filters="sRGB">
<feFlood flood-opacity="0" result="BackgroundImageFix"/>
<feColorMatrix in="SourceAlpha" type="matrix" values="0 0 0 0 0 0 0 0 0 0 0 0 0 0 0 0 0 0 127 0" result="hardAlpha"/>
<feMorphology radius="1" operator="dilate" in="SourceAlpha" result="effect1_dropShadow_23_315"/>
<feOffset dy="1"/>
<feGaussianBlur stdDeviation="1"/>
<feComposite in2="hardAlpha" operator="out"/>
<feColorMatrix type="matrix" values="0 0 0 0 0 0 0 0 0 0 0 0 0 0 0 0 0 0 0.25 0"/>
<feBlend mode="normal" in2="BackgroundImageFix" result="effect1_dropShadow_23_315"/>
<feBlend mode="normal" in="SourceGraphic" in2="effect1_dropShadow_23_315" result="shape"/>
</filter>
</defs>
</svg>
