<svg width="17" height="16" viewBox="0 0 17 16" fill="none" xmlns="http://www.w3.org/2000/svg">
<path d="M5.71345 5.124L5.7685 5.62096L6.05179 5.58958L6.16912 5.32982L5.71345 5.124ZM5.71345 5.124L6.16914 5.32979L6.16918 5.32969L6.16936 5.32929L6.17008 5.32772L6.17291 5.32145L6.18404 5.29681L6.22707 5.20154L6.3873 4.84685L6.93285 3.63939C7.36888 2.67442 7.9139 1.46853 8.35062 0.503143C8.35135 0.5041 8.3521 0.50524 8.35283 0.506576L9.76871 3.63944L10.3145 4.84695L10.4748 5.20165L10.5179 5.29693L10.5291 5.32158L10.5319 5.32785L10.5326 5.32942L10.5328 5.32982L10.5328 5.32992L10.9885 5.124M5.71345 5.124L5.76846 5.62097L5.76835 5.62098L5.76792 5.62103L5.7662 5.62122L5.75937 5.62197L5.7325 5.62495L5.6286 5.63646L5.24182 5.6793L3.92503 5.82521C2.8729 5.9418 1.55799 6.08757 0.504719 6.20449C0.504365 6.20455 0.504028 6.20462 0.503707 6.20469C1.2861 6.91864 2.26455 7.8097 3.04777 8.52262L4.0278 9.41445L4.31573 9.67638L4.39307 9.74673L4.41308 9.76493L4.41816 9.76955L4.41944 9.77071L4.41976 9.771L4.41984 9.77108L4.08345 10.141L4.41987 9.7711L5.37635 10.641H4.48962L4.46454 10.7615C4.39723 11.0856 4.3032 11.5395 4.19583 12.0584C3.98148 13.0944 3.71408 14.389 3.5003 15.4264C3.50021 15.427 3.50016 15.4276 3.50012 15.4282C4.4212 14.9047 5.57062 14.2499 6.49034 13.7256L7.64135 13.0693L7.97941 12.8765L8.0702 12.8247L8.09368 12.8113L8.09965 12.8079L8.10115 12.807L8.10153 12.8068L8.10162 12.8067L8.34945 13.241M10.9885 5.124L10.9335 5.62097L10.9336 5.62098L10.934 5.62103L10.9357 5.62122L10.9426 5.62197L10.9694 5.62495L11.0733 5.63646L11.4602 5.67933L12.7773 5.82545C13.83 5.94233 15.1456 6.08865 16.1989 6.20656C16.1983 6.20733 16.1976 6.20816 16.1968 6.209C15.4145 6.92131 14.4369 7.8109 13.6542 8.5229L12.6741 9.41447L12.3862 9.67637L12.3088 9.74673L12.2888 9.76492L12.2837 9.76955L12.2825 9.77071L12.2821 9.771L12.2821 9.77108L12.6185 10.141M10.9885 5.124L10.5328 5.32995L10.6502 5.5896L10.9334 5.62096L10.9885 5.124ZM8.34945 13.241L8.59722 12.8067L8.59731 12.8068L8.59769 12.807L8.59919 12.8078L8.60516 12.8112L8.62866 12.8246L8.71949 12.8764L9.05765 13.0693L10.2088 13.7258C11.1277 14.2498 12.2757 14.9044 13.1952 15.4283C13.1966 15.429 13.1979 15.4295 13.1991 15.4299C13.1991 15.4298 13.1991 15.4297 13.1991 15.4296C12.9852 14.3913 12.7178 13.0952 12.5038 12.0583L12.2359 10.761L12.1573 10.3799L12.1361 10.2776L12.1306 10.2511L12.1293 10.2444L12.1289 10.2427L12.1288 10.2423L12.1288 10.2422L12.6185 10.141M8.34945 13.241L8.10165 12.8067L8.34941 12.6654L8.59718 12.8067L8.34945 13.241ZM12.6185 10.141L12.1288 10.2421L12.0711 9.96293L12.282 9.7711L12.6185 10.141ZM0.49919 6.20657C0.499295 6.20649 0.499484 6.20635 0.499756 6.20619L0.49984 6.20576C0.49981 6.2058 0.499777 6.20585 0.49974 6.20591C0.499691 6.20598 0.499644 6.20604 0.499598 6.2061C0.499297 6.20649 0.499098 6.20665 0.49919 6.20657Z" fill="white" stroke="black"/>
</svg>
