<svg width="20" height="23" viewBox="0 0 20 23" fill="none" xmlns="http://www.w3.org/2000/svg">
<path d="M6.15381 7.15448H7.69227V18.6785H6.15381V7.15448Z" fill="#134563"/>
<path d="M9.23083 7.15448H10.7693V18.6785H9.23083V7.15448Z" fill="#134563"/>
<path d="M12.3077 7.15448H13.8462V18.6785H12.3077V7.15448Z" fill="#134563"/>
<path d="M0 2.83298H20V4.27348H0V2.83298Z" fill="#134563"/>
<path d="M13.7948 3.55323H12.3589V2.11273C12.3589 1.68058 11.9999 1.34447 11.5384 1.34447H8.46149C7.99995 1.34447 7.64097 1.68058 7.64097 2.11273V3.55323H6.20508V2.11273C6.20508 0.960331 7.23072 0 8.46149 0H11.5384C12.7692 0 13.7948 0.960331 13.7948 2.11273V3.55323Z" fill="#134563"/>
<path d="M14.6154 23H5.38461C4.15384 23 3.07692 22.0397 2.97435 20.8873L1.53845 3.60125L3.07691 3.50522L4.51281 20.7912C4.56409 21.2234 4.97435 21.5595 5.38461 21.5595H14.6154C15.0769 21.5595 15.4872 21.1754 15.4872 20.7912L16.9231 3.50522L18.4615 3.60125L17.0256 20.8873C16.9231 22.0877 15.8461 23 14.6154 23Z" fill="#134563"/>
</svg>
