<svg width="15" height="13" viewBox="0 0 15 13" fill="none" xmlns="http://www.w3.org/2000/svg">
<path d="M7.5 13L7.24895 12.7823C1.53765 8.17943 0 6.5622 0 3.91866C0 1.74162 1.7887 0 3.95397 0C5.77406 0 6.80962 1.02631 7.5 1.80382C8.19038 1.02631 9.22594 0 11.046 0C13.2427 0 15 1.77272 15 3.91866C15 6.5622 13.4623 8.17943 7.75105 12.7823L7.5 13ZM3.95397 0.80861C2.22803 0.80861 0.815897 2.20813 0.815897 3.91866C0.815897 6.18899 2.25941 7.68182 7.5 11.9426C12.7406 7.68182 14.1841 6.18899 14.1841 3.91866C14.1841 2.20813 12.772 0.80861 11.046 0.80861C9.47699 0.80861 8.62971 1.74163 7.97071 2.48804L7.5 3.01675L7.02929 2.48804C6.37029 1.74163 5.52301 0.80861 3.95397 0.80861Z" fill="white"/>
</svg>
