<svg width="25" height="17" viewBox="0 0 25 17" fill="none" xmlns="http://www.w3.org/2000/svg">
<path d="M1.78571 3.4H23.2143C24.2 3.4 25 2.6384 25 1.7C25 0.7616 24.2 0 23.2143 0H1.78571C0.8 0 0 0.7616 0 1.7C0 2.6384 0.8 3.4 1.78571 3.4ZM23.2143 6.8H1.78571C0.8 6.8 0 7.5616 0 8.5C0 9.4384 0.8 10.2 1.78571 10.2H23.2143C24.2 10.2 25 9.4384 25 8.5C25 7.5616 24.2 6.8 23.2143 6.8ZM23.2143 13.6H1.78571C0.8 13.6 0 14.3616 0 15.3C0 16.2384 0.8 17 1.78571 17H23.2143C24.2 17 25 16.2384 25 15.3C25 14.3616 24.2 13.6 23.2143 13.6Z" fill="black"/>
</svg>
