<svg width="106" height="106" viewBox="0 0 106 106" fill="none" xmlns="http://www.w3.org/2000/svg">
<g filter="url(#filter0_d_23_313)">
<rect x="3" y="2" width="100" height="100" rx="50" fill="white" shape-rendering="crispEdges"/>
<rect x="3.5" y="2.5" width="99" height="99" rx="49.5" stroke="#EDF4EA" shape-rendering="crispEdges"/>
<path fill-rule="evenodd" clip-rule="evenodd" d="M85.039 40.5354C84.8232 40.5884 36.8377 53.3739 36.8377 53.3739C35.9115 53.6295 34.9654 53.7619 34.0448 53.7667C30.3568 53.7881 27.0753 51.7756 27.1018 47.5345C27.1125 45.8747 27.6294 43.874 28.8263 41.52C24.5969 46.4034 20.5411 52.4599 20.5003 56.9865C20.4847 58.6898 21.0375 60.1768 22.3641 61.3036C24.2734 62.9245 26.3766 63.4968 28.47 63.5C31.5289 63.5041 34.5664 62.2909 36.9448 61.3554C40.9504 59.7804 85.2262 40.8764 85.2262 40.8764C85.6533 40.6664 85.5731 40.4039 85.039 40.5354Z" fill="#1B1B1B"/>
</g>
<defs>
<filter id="filter0_d_23_313" x="0" y="0" width="106" height="106" filterUnits="userSpaceOnUse" color-interpolation-filters="sRGB">
<feFlood flood-opacity="0" result="BackgroundImageFix"/>
<feColorMatrix in="SourceAlpha" type="matrix" values="0 0 0 0 0 0 0 0 0 0 0 0 0 0 0 0 0 0 127 0" result="hardAlpha"/>
<feMorphology radius="1" operator="dilate" in="SourceAlpha" result="effect1_dropShadow_23_313"/>
<feOffset dy="1"/>
<feGaussianBlur stdDeviation="1"/>
<feComposite in2="hardAlpha" operator="out"/>
<feColorMatrix type="matrix" values="0 0 0 0 0 0 0 0 0 0 0 0 0 0 0 0 0 0 0.25 0"/>
<feBlend mode="normal" in2="BackgroundImageFix" result="effect1_dropShadow_23_313"/>
<feBlend mode="normal" in="SourceGraphic" in2="effect1_dropShadow_23_313" result="shape"/>
</filter>
</defs>
</svg>
