<svg width="106" height="106" viewBox="0 0 106 106" fill="none" xmlns="http://www.w3.org/2000/svg">
<g filter="url(#filter0_d_23_314)">
<rect x="3" y="2" width="100" height="100" rx="50" fill="white" shape-rendering="crispEdges"/>
<rect x="3.5" y="2.5" width="99" height="99" rx="49.5" stroke="#EDF4EA" shape-rendering="crispEdges"/>
<path d="M59.4844 38.0379C59.2711 38.0379 59.0792 38.7505 58.674 39.1069C58.2688 39.4632 57.9916 39.3507 57.7996 39.6507C57.6077 39.9508 57.7996 39.9695 57.6717 40.1758C57.5437 40.3821 56.9892 40.6822 56.9892 41.001C56.9892 41.3198 57.4797 41.5449 57.8849 41.8637C58.2901 42.1825 58.2475 42.3138 58.6527 42.4451C59.0579 42.5763 59.5057 42.2013 59.9536 42.3325C60.4014 42.4638 60.6787 42.5013 60.764 42.8389C60.8493 43.1765 60.764 43.6266 60.3161 43.5703C59.781 43.4457 59.2259 43.4013 58.674 43.439C57.693 43.439 56.5414 43.8141 56.5414 44.7705C56.5487 44.9246 56.5925 45.0756 56.67 45.2139C56.7475 45.3522 56.8571 45.4747 56.9916 45.5736C57.1262 45.6725 57.2827 45.7456 57.4512 45.7881C57.6198 45.8307 57.7965 45.8418 57.9702 45.8208C58.4607 45.8208 58.2261 45.2206 58.5034 44.9581C58.7806 44.6955 60.9132 46.1021 62.7686 46.1021C63.1407 46.1207 63.5127 46.0645 63.8563 45.9377C64.2 45.811 64.5063 45.6171 64.7519 45.3707C64.7519 45.3707 64.8799 45.2394 64.9652 45.2394C65.0633 45.2558 65.1572 45.2875 65.2424 45.3332C66.2245 46.4301 67.4939 47.3016 68.9423 47.8731C70.3907 48.4446 71.975 48.6992 73.5596 48.6151C74.4702 48.6667 75.3309 48.9987 75.9908 49.5528C76.6454 50.1867 77.1268 50.9435 77.3983 51.7658C78.1079 53.2379 79.1447 54.5705 80.448 55.6853L81.8982 56.6793C81.8982 56.6793 81.8982 56.8856 81.8982 56.9981C81.8982 57.8233 81.7276 60.205 83.7535 60.3176C84.244 60.3176 84.1161 60.0362 84.1161 59.8112C84.0472 59.3864 84.106 58.9532 84.2867 58.5547C84.6279 57.9733 83.5616 57.7108 83.5829 56.4355C83.5829 55.4978 82.7086 55.6478 82.2607 54.9352C81.9565 54.6127 81.7838 54.21 81.7702 53.7912C81.9521 51.9987 81.5761 50.1965 80.6826 48.5776C80.3627 48.2213 80.1068 48.09 80.4053 47.9212C81.3127 47.4968 82.0553 46.8437 82.5379 46.0458C83.1068 44.45 84.0679 42.9839 85.353 41.7512C85.7148 41.4983 86.1 41.2725 86.5046 41.076C87.1855 40.8376 87.8245 40.5156 88.4026 40.1196C88.8718 39.707 89.2557 38.8443 88.7865 38.3379C88.3173 37.8316 87.2297 38.2067 86.8032 38.3379C83.6896 39.9508 83.2417 42.8201 82.1541 44.4517C81.8173 45.0558 81.3265 45.5833 80.7198 45.9932C80.1132 46.403 79.4071 46.6842 78.6566 46.8147C77.6367 46.8564 76.6203 46.6827 75.6923 46.3084C74.1897 45.7147 72.8068 44.9103 71.5976 43.9266C70.9365 43.4765 65.8609 39.0881 61.7236 38.9006C61.7236 38.9006 61.2118 38.0004 61.0838 38.0004C60.9559 38.0004 60.4654 38.5255 60.2521 38.6005C60.0389 38.6755 59.6976 37.9816 59.4844 38.0004" fill="black"/>
<path d="M41.3145 64.2934C41.1255 64.2844 40.947 64.2143 40.8132 64.0966C40.6793 63.9789 40.5997 63.8219 40.5894 63.6557V52.4034H36.3242V64.8748C36.3241 65.17 36.456 65.4534 36.6914 65.6639C36.9268 65.8743 37.2468 65.9951 37.5824 66H45.0039C45.171 66 45.3363 65.9708 45.4904 65.914C45.6445 65.8572 45.7841 65.774 45.9013 65.6693C46.0184 65.5646 46.1106 65.4404 46.1726 65.3039C46.2345 65.1675 46.265 65.0216 46.2622 64.8748V52.3284H42.0609V63.5807C42.0507 63.7469 41.971 63.9039 41.8372 64.0216C41.7034 64.1393 41.5248 64.2094 41.3358 64.2184" fill="black"/>
<path d="M55.5177 52.3284H49.1199C48.7522 52.3284 48.3996 52.4568 48.1397 52.6854C47.8797 52.914 47.7337 53.2241 47.7337 53.5474V65.925H51.9989V54.5788C52.0043 54.4112 52.0824 54.2518 52.2172 54.1332C52.3521 54.0146 52.5334 53.9459 52.724 53.9412C52.9127 53.9411 53.0939 54.0057 53.2293 54.1213C53.3647 54.2368 53.4435 54.3942 53.4491 54.5601V65.925H57.7143V54.5601C57.7143 54.391 57.7907 54.2288 57.9267 54.1092C58.0627 53.9896 58.2471 53.9224 58.4394 53.9224C58.6317 53.9224 58.8161 53.9896 58.9521 54.1092C59.0881 54.2288 59.1645 54.391 59.1645 54.5601V65.9062H63.4297V53.5286C63.4297 53.2053 63.2837 52.8952 63.0237 52.6666C62.7637 52.438 62.4112 52.3096 62.0435 52.3096H55.6457" fill="black"/>
<path d="M33.5305 62.5118H29.2652V65.925H25V52.3284H33.5305C33.7115 52.3283 33.8907 52.36 34.0577 52.4215C34.2247 52.483 34.3762 52.5731 34.5032 52.6865C34.6302 52.8 34.7303 52.9345 34.7976 53.0823C34.8649 53.2301 34.8982 53.3882 34.8953 53.5474V61.3115C34.8898 61.6283 34.7443 61.9308 34.4895 62.1549C34.2347 62.3789 33.8907 62.5069 33.5305 62.5118ZM30.6728 54.5976C30.6756 54.5139 30.6596 54.4304 30.6258 54.3521C30.592 54.2738 30.5409 54.2021 30.4756 54.1412C30.4102 54.0802 30.3318 54.0312 30.2449 53.9968C30.158 53.9625 30.0642 53.9436 29.969 53.9412H29.2652V60.8239H29.9903C30.1789 60.819 30.3579 60.7497 30.4893 60.6306C30.6207 60.5116 30.6942 60.3522 30.6941 60.1863V54.5601" fill="black"/>
<path d="M70.446 65.925V62.5118H68.9958V65.925H64.7306V53.5474C64.7306 53.2241 64.8767 52.914 65.1366 52.6854C65.3966 52.4568 65.7492 52.3284 66.1168 52.3284H73.2824C73.6463 52.3333 73.9935 52.4639 74.2488 52.692C74.5042 52.9201 74.6473 53.2273 74.6473 53.5474V65.925H70.446ZM70.446 60.8239V54.5601C70.4351 54.3976 70.354 54.2449 70.2191 54.1333C70.0843 54.0217 69.9061 53.9597 69.7209 53.96C69.5323 53.9599 69.351 54.0245 69.2156 54.14C69.0802 54.2556 69.0014 54.413 68.9958 54.5788V60.8239H70.446Z" fill="black"/>
</g>
<defs>
<filter id="filter0_d_23_314" x="0" y="0" width="106" height="106" filterUnits="userSpaceOnUse" color-interpolation-filters="sRGB">
<feFlood flood-opacity="0" result="BackgroundImageFix"/>
<feColorMatrix in="SourceAlpha" type="matrix" values="0 0 0 0 0 0 0 0 0 0 0 0 0 0 0 0 0 0 127 0" result="hardAlpha"/>
<feMorphology radius="1" operator="dilate" in="SourceAlpha" result="effect1_dropShadow_23_314"/>
<feOffset dy="1"/>
<feGaussianBlur stdDeviation="1"/>
<feComposite in2="hardAlpha" operator="out"/>
<feColorMatrix type="matrix" values="0 0 0 0 0 0 0 0 0 0 0 0 0 0 0 0 0 0 0.25 0"/>
<feBlend mode="normal" in2="BackgroundImageFix" result="effect1_dropShadow_23_314"/>
<feBlend mode="normal" in="SourceGraphic" in2="effect1_dropShadow_23_314" result="shape"/>
</filter>
</defs>
</svg>
